<?xml version="1.0" ?><svg viewBox="0 0 32 32" xmlns="http://www.w3.org/2000/svg"><defs><style>.cls-1{fill:none;}</style></defs><title/><g data-name="Layer 2" id="Layer_2"><path d="M13,28a1,1,0,0,1-.53-.15A1,1,0,0,1,12,27V17.38L4.28,8.81A5,5,0,0,1,3,5.46V5A1,1,0,0,1,4,4H28a1,1,0,0,1,1,1v.46a5,5,0,0,1-1.28,3.35L20,17.38v5.38a3,3,0,0,1-1.66,2.69l-4.89,2.44A1,1,0,0,1,13,28ZM5.05,6a3,3,0,0,0,.72,1.47l8,8.86A1,1,0,0,1,14,17v8.38l3.45-1.72a1,1,0,0,0,.55-.9V17a1,1,0,0,1,.26-.67l8-8.86A3,3,0,0,0,27,6Z"/></g><g id="frame"><rect class="cls-1" height="32" width="32"/></g></svg>